<svg width="88" height="70" viewBox="0 0 88 70" fill="none" xmlns="http://www.w3.org/2000/svg">
<path d="M5.29887 3.17692C5.70023 1.35739 8.11445 1.08806 8.9351 2.76088C12.5903 10.2116 19.6569 24.6163 24.7081 34.9127C30.067 45.8362 37.6943 61.3838 41.1099 68.3461C41.8384 69.8311 43.949 69.8342 44.6904 68.3556L77.7827 2.35279C78.5707 0.781137 80.8172 0.926103 81.3517 2.601C83.6412 9.77506 87.7839 24.2205 87.7821 34.8163C87.7802 45.6558 83.4397 60.429 81.0642 67.7028C80.5179 69.3757 78.2687 69.5012 77.4937 67.9213L61.3782 35.0715L44.9794 1.64413C44.2509 0.159147 42.1373 0.149988 41.396 1.6286L8.66482 66.9111C7.8292 68.5778 5.41298 68.2944 5.02953 66.4699C3.43424 58.8791 0.79955 44.7369 0.87414 34.4397C0.946965 24.386 3.65587 10.6252 5.29887 3.17692Z" fill="#F24E1E"/>
</svg>
